.
 
http://www.scenetime.com    -  Hottest private tracker on the net. !!!

Sign up will close shortly !!  Join now 

        Seed back for speed


...................................NFO:.................................................








































          
          
              
              
                    
                    
                    
                    

Hanna.2011.BRRip.Xvid.AC3-SiC

Poster:
[img]http://img594.imageshack.us/img594/2623/062196901eb0540148c74f6.jpg[/img]

IMDB Link:
http://www.imdb.com/title/tt0993842/

Description:
A 16-year-old who was raised by her father to be the perfect assassin 
is dispatched on a mission across Europe, tracked by a ruthless intelligence 
agent and her operatives.

MediaInfo:
General
Complete name                    : Hanna.2011.BRRip.Xvid.AC3-SiC.avi
Format                           : AVI
Format/Info                      : Audio Video Interleave
File size                        : 1.30 GiB
Duration                         : 1h 51mn
Overall bit rate                 : 1 672 Kbps

Video
ID                               : 0
Format                           : MPEG-4 Visual
Format profile                   : Advanced Simple@L5
Format settings, BVOP            : Yes
Format settings, QPel            : No
Format settings, GMC             : No warppoints
Format settings, Matrix          : Default (H.263)
Muxing mode                      : Packed bitstream
Codec ID                         : XVID
Codec ID/Hint                    : XviD
Duration                         : 1h 51mn
Bit rate                         : 1 280 Kbps
Width                            : 720 pixels
Height                           : 304 pixels
Display aspect ratio             : 2.35:1
Frame rate                       : 23.976 fps
Resolution                       : 8 bits
Colorimetry                      : 4:2:0
Scan type                        : Progressive
Bits/(Pixel*Frame)               : 0.244
Stream size                      : 1 016 MiB (77%)
Writing library                  : XviD 64

Audio
ID                               : 1
Format                           : AC-3
Format/Info                      : Audio Coding 3
Format_Settings_ModeExtension    : CM (complete main)
Codec ID                         : 2000
Duration                         : 1h 51mn
Bit rate mode                    : Constant
Bit rate                         : 384 Kbps
Channel(s)                       : 6 channels
Channel positions                : Front: L C R, Side: L R, LFE
Sampling rate                    : 48.0 KHz
Stream size                      : 305 MiB (23%)
Alignment                        : Aligned on interleaves
Interleave, duration             : 64 ms (1.53 video frames)
Interleave, preload duration     : 192 ms
Title                            : 6ch English

Screenshots:
[img]http://img849.imageshack.us/img849/7243/hanna2011brripxvidac3si.png[/img]
[img]http://img204.imageshack.us/img204/7243/hanna2011brripxvidac3si.png[/img]
[img]http://img64.imageshack.us/img64/7243/hanna2011brripxvidac3si.png[/img]
[img]http://img402.imageshack.us/img402/7243/hanna2011brripxvidac3si.png[/img]
[img]http://img820.imageshack.us/img820/7243/hanna2011brripxvidac3si.png[/img]
[img]http://img706.imageshack.us/img706/6923/vlcsnap2011083115h19m23.png[/img]

Note :   Hardcoded English Subs for non English parts 

Source : BluRay-CHD Thanks!!!

Enjoy!

Respects to CaptainHomey, Cyanide, CM8, Rx, THC, ELEKTRI4KA, 
Killerhz, PA, YeFsTe, BoxSlots, MrRep and everyone in the struggle...